<svg width="56" height="56" viewBox="0 0 56 56" fill="none" xmlns="http://www.w3.org/2000/svg">
<path fill-rule="evenodd" clip-rule="evenodd" d="M49.9497 37.3485C49.9497 51.1712 37.8805 54.4075 34.8157 55.006C34.5754 55.0538 34.4424 55.083 34.2125 55.1098C34.1204 55.1203 33.901 55.125 33.7634 55.125L22.6334 55.1168C22.4922 55.1168 22.0244 55.0982 22.001 55.097C21.5449 55.0632 20.6349 54.9803 19.4694 54.7762C15.0734 54.0167 7.04669 51.6192 6.17169 44.1747C5.44019 37.9447 8.10252 34.8343 11.4462 30.6763C14.1412 27.3245 12.0295 22.365 12.0132 22.3183C12.0832 22.3557 16.555 24.815 17.6225 26.9197C18.1693 27.9167 18.6074 28.9697 18.9292 30.0603C18.9082 29.8888 17.9725 22.1713 21.9625 16.982C25.998 11.732 26.845 10.1232 26.9209 7.43866C26.7584 5.15873 26.1616 2.93087 25.1627 0.875C29.0644 3.35006 32.371 6.65666 34.846 10.5583C36.7746 13.6184 37.8455 17.1405 37.947 20.7562C38.9924 19.7174 39.809 18.4716 40.3445 17.0987C40.7531 15.5218 40.8411 13.879 40.6035 12.2675L43.0699 16.4675C45.8384 21.539 49.9497 30.254 49.9497 37.3485Z" fill="#D75C1E"/>
<path fill-rule="evenodd" clip-rule="evenodd" d="M49.9496 37.3486C49.9496 30.2541 45.8383 21.5391 43.0663 16.4734L40.6 12.2734C40.8376 13.8849 40.7495 15.5277 40.341 17.1046C39.8063 18.4779 38.9895 19.7239 37.9435 20.7621C37.8421 17.1467 36.7711 13.6251 34.8425 10.5654C33.8379 9.04637 32.7206 7.60498 31.5 6.25342C31.2456 8.46308 30.17 10.2621 26.6 14.8996C22.6076 20.0889 23.5445 27.8064 23.5666 27.9779C23.2445 26.8872 22.8069 25.8339 22.2611 24.8361C21.5527 23.7404 20.6242 22.804 19.5346 22.0862C18.8708 24.6889 18.6647 27.3872 18.9256 30.0604C18.6035 28.9697 18.1659 27.9164 17.6201 26.9186C17.5058 26.6991 17.371 26.4909 17.2176 26.2967C17.0095 27.1352 16.6227 27.9188 16.0836 28.5939C12.74 32.7519 10.0776 35.8622 10.8091 42.0922C11.6841 49.5367 19.7096 51.9354 24.1091 52.6937C25.0521 52.8629 26.0042 52.9767 26.9605 53.0344L38.7531 53.0426H38.7601L38.9095 53.0204C39.8858 52.8592 40.8486 52.6252 41.79 52.3204C45.8302 49.8867 49.9496 45.4242 49.9496 37.3486Z" fill="#FF6600"/>
<path d="M38.7894 46.3784C38.7964 41.1156 34.1904 34.0409 34.1904 34.0409C34.3073 34.834 34.264 35.6425 34.0632 36.4186C33.7996 37.0938 33.3979 37.7066 32.8837 38.2176C32.8328 36.439 32.3059 34.7066 31.3577 33.2009C30.1406 31.2802 28.5135 29.6527 26.5931 28.4351C26.7757 30.0734 26.7254 31.7294 26.4437 33.3537C25.6364 37.1197 23.1001 38.9257 19.9874 42.2694C18.6807 43.7662 16.8199 46.6829 17.2504 49.7361C17.3176 50.2267 17.4389 50.7083 17.6121 51.1722C17.7959 51.6501 18.0058 52.1174 18.2409 52.5722C18.6017 53.278 19.1364 53.8803 19.7945 54.3222C20.4525 54.7642 21.2124 55.0312 22.0022 55.0981C22.0256 55.0981 22.4934 55.1179 22.6346 55.1179L33.7634 55.1261C33.901 55.1261 34.1204 55.1261 34.2125 55.1109L34.2732 55.1027C34.7154 54.9406 38.78 53.2687 38.7894 46.3784Z" fill="#FF8300"/>
<path fill-rule="evenodd" clip-rule="evenodd" d="M34.1903 34.0409C34.3072 34.8336 34.2639 35.6417 34.0631 36.4174C33.7998 37.0932 33.398 37.7064 32.8836 38.2176C32.8326 36.439 32.3057 34.7067 31.3576 33.2009C31.1663 32.9128 30.9726 32.6386 30.7743 32.3843C29.7418 35.4304 27.4143 37.1933 24.6236 40.1916C23.317 41.6896 21.4561 44.6051 21.8866 47.6583C21.8971 47.7341 21.9216 47.8531 21.9601 48.0083C22.3261 49.4191 23.1455 50.6705 24.2922 51.5702C25.4389 52.4698 26.8494 52.9678 28.3068 52.9876L30.9481 53.0413H32.0168C33.7809 53.0573 35.4804 52.3777 36.7469 51.1496C38.0135 49.9214 38.7452 48.2437 38.7835 46.4799V46.3831C38.7963 41.1156 34.1903 34.0409 34.1903 34.0409Z" fill="#FFA511"/>
</svg>
