<svg width="4" height="6" viewBox="0 0 4 6" fill="none" xmlns="http://www.w3.org/2000/svg">
<path d="M3.84919 2.65338L1.19358 0.146325C1.09578 0.0487615 0.973656 0 0.826967 0C0.680277 0 0.558154 0.0488155 0.460356 0.146325L0.150799 0.435198C0.0503042 0.530199 5.70353e-05 0.645675 5.70353e-05 0.781749C5.70353e-05 0.915246 0.05029 1.0321 0.150799 1.1322L2.13034 3.00001L0.150713 4.87167C0.0502472 4.96667 0 5.08215 0 5.21824C0 5.35172 0.0502329 5.46861 0.150713 5.56867L0.460299 5.85751C0.560779 5.95251 0.68303 6 0.82691 6C0.970846 6 1.09307 5.95251 1.19352 5.85751L3.84919 3.35045C3.94971 3.25032 4 3.1335 4 3C4.00001 2.86393 3.94971 2.74838 3.84919 2.65338Z" fill="white"/>
</svg>
