<svg width="12" height="11" viewBox="0 0 12 11" fill="none" xmlns="http://www.w3.org/2000/svg">
<path d="M10.6916 0H9.57009V1.1C9.57009 1.32 9.38318 1.46667 9.19626 1.46667C9.00935 1.46667 8.82243 1.32 8.82243 1.1V0H2.84112V1.1C2.84112 1.32 2.65421 1.46667 2.46729 1.46667C2.28037 1.46667 2.09346 1.32 2.09346 1.1V0H0.971963C0.411215 0 0 0.476667 0 1.1V2.42H11.9626V1.1C11.9626 0.476667 11.2897 0 10.6916 0ZM0 3.19V9.9C0 10.56 0.411215 11 1.00935 11H10.729C11.3271 11 12 10.5233 12 9.9V3.19H0ZM3.3271 9.35H2.42991C2.28037 9.35 2.13084 9.24 2.13084 9.05667V8.14C2.13084 7.99333 2.24299 7.84667 2.42991 7.84667H3.36449C3.51402 7.84667 3.66355 7.95667 3.66355 8.14V9.05667C3.62617 9.24 3.51402 9.35 3.3271 9.35ZM3.3271 6.05H2.42991C2.28037 6.05 2.13084 5.94 2.13084 5.75667V4.84C2.13084 4.69333 2.24299 4.54667 2.42991 4.54667H3.36449C3.51402 4.54667 3.66355 4.65667 3.66355 4.84V5.75667C3.62617 5.94 3.51402 6.05 3.3271 6.05ZM6.31776 9.35H5.38318C5.23365 9.35 5.08411 9.24 5.08411 9.05667V8.14C5.08411 7.99333 5.19626 7.84667 5.38318 7.84667H6.31776C6.46729 7.84667 6.61682 7.95667 6.61682 8.14V9.05667C6.61682 9.24 6.50467 9.35 6.31776 9.35ZM6.31776 6.05H5.38318C5.23365 6.05 5.08411 5.94 5.08411 5.75667V4.84C5.08411 4.69333 5.19626 4.54667 5.38318 4.54667H6.31776C6.46729 4.54667 6.61682 4.65667 6.61682 4.84V5.75667C6.61682 5.94 6.50467 6.05 6.31776 6.05ZM9.30841 9.35H8.37383C8.2243 9.35 8.07477 9.24 8.07477 9.05667V8.14C8.07477 7.99333 8.18692 7.84667 8.37383 7.84667H9.30841C9.45794 7.84667 9.60748 7.95667 9.60748 8.14V9.05667C9.60748 9.24 9.49533 9.35 9.30841 9.35ZM9.30841 6.05H8.37383C8.2243 6.05 8.07477 5.94 8.07477 5.75667V4.84C8.07477 4.69333 8.18692 4.54667 8.37383 4.54667H9.30841C9.45794 4.54667 9.60748 4.65667 9.60748 4.84V5.75667C9.60748 5.94 9.49533 6.05 9.30841 6.05Z" fill="#FF7B00"/>
</svg>
