<svg width="14" height="14" viewBox="0 0 14 14" fill="none" xmlns="http://www.w3.org/2000/svg">
<path d="M11.9 2.1H11.2V0.7C11.2 0.514348 11.1263 0.336301 10.995 0.205025C10.8637 0.0737498 10.6857 0 10.5 0C10.3143 0 10.1363 0.0737498 10.005 0.205025C9.87375 0.336301 9.8 0.514348 9.8 0.7V2.1H4.2V0.7C4.2 0.514348 4.12625 0.336301 3.99497 0.205025C3.8637 0.0737498 3.68565 0 3.5 0C3.31435 0 3.1363 0.0737498 3.00503 0.205025C2.87375 0.336301 2.8 0.514348 2.8 0.7V2.1H2.1C1.54305 2.1 1.0089 2.32125 0.615076 2.71508C0.221249 3.1089 0 3.64305 0 4.2V4.9H14V4.2C14 3.64305 13.7788 3.1089 13.3849 2.71508C12.9911 2.32125 12.457 2.1 11.9 2.1Z" fill="url(#paint0_linear_135_1641)"/>
<path d="M0 11.9C0 12.457 0.221249 12.9911 0.615076 13.3849C1.0089 13.7788 1.54305 14 2.1 14H11.9C12.457 14 12.9911 13.7788 13.3849 13.3849C13.7788 12.9911 14 12.457 14 11.9V6.3H0V11.9Z" fill="url(#paint1_linear_135_1641)"/>
<defs>
<linearGradient id="paint0_linear_135_1641" x1="5.20661" y1="12.32" x2="11.4756" y2="11.3885" gradientUnits="userSpaceOnUse">
<stop stop-color="#FFC83E"/>
<stop offset="1" stop-color="#FF7347"/>
</linearGradient>
<linearGradient id="paint1_linear_135_1641" x1="5.20661" y1="12.32" x2="11.4756" y2="11.3885" gradientUnits="userSpaceOnUse">
<stop stop-color="#FFC83E"/>
<stop offset="1" stop-color="#FF7347"/>
</linearGradient>
</defs>
</svg>
