<svg width="11" height="21" viewBox="0 0 11 21" fill="none" xmlns="http://www.w3.org/2000/svg">
<path d="M0.647008 12.1949H2.81923V20.3429C2.81923 20.7051 3.10823 20.9991 3.46624 20.9991L6.92299 21C7.281 21 7.56999 20.7051 7.56999 20.3438V12.1957H9.62921C9.9553 12.1957 10.2305 11.949 10.271 11.6209L10.7007 8.12088C10.749 7.73063 10.4479 7.38325 10.0588 7.38325H7.56999C7.66748 5.22113 7.19473 4.5815 8.58105 4.5815C9.51965 4.46775 11 4.94988 11 3.92525V0.795375C11 0.46725 10.761 0.189875 10.441 0.14525C10.1701 0.107625 9.09952 0 7.77186 0C1.72449 0 2.96934 6.8005 2.82009 7.38238H0.647008C0.28986 7.38238 0 7.67638 0 8.03863V11.5386C0 11.9009 0.28986 12.1949 0.647008 12.1949ZM1.29402 8.69575H3.46624C3.82339 8.69575 4.11325 8.40175 4.11325 8.0395V5.28238C4.11325 2.75975 5.44608 1.31338 7.771 1.31338C8.52843 1.31338 9.22547 1.351 9.70512 1.3895V3.26988C9.35833 3.44925 6.27512 2.49637 6.27512 5.62975V8.04038C6.27512 8.40263 6.56498 8.69663 6.92212 8.69663H9.32554L9.05639 10.8841H6.92212C6.56498 10.8841 6.27512 11.1781 6.27512 11.5404V19.6875H4.11411V11.5395C4.11411 11.1772 3.82425 10.8832 3.4671 10.8832H1.29402V8.69575Z" fill="white"/>
</svg>
