<svg width="67" height="67" viewBox="0 0 67 67" fill="none" xmlns="http://www.w3.org/2000/svg">
<path d="M61.6241 4.83973H53.0605C52.5185 4.83973 52.0791 5.2797 52.0791 5.82238C52.0791 6.36506 52.5185 6.80503 53.0605 6.80503H61.6241C62.1661 6.80503 62.6055 6.36506 62.6055 5.82238C62.6055 5.2797 62.1662 4.83973 61.6241 4.83973Z" fill="#CFD5DD"/>
<path d="M48.1975 6.80503H49.2414C49.7834 6.80503 50.2228 6.36506 50.2228 5.82238C50.2228 5.2797 49.7834 4.83973 49.2414 4.83973H48.1975C47.6555 4.83973 47.2161 5.2797 47.2161 5.82238C47.2161 6.36506 47.6555 6.80503 48.1975 6.80503Z" fill="#CFD5DD"/>
<path d="M48.1975 11.4211H61.6242C62.1662 11.4211 62.6056 10.9811 62.6056 10.4385C62.6056 9.89577 62.1662 9.45581 61.6242 9.45581H48.1975C47.6555 9.45581 47.2161 9.89577 47.2161 10.4385C47.2161 10.9811 47.6555 11.4211 48.1975 11.4211Z" fill="#CFD5DD"/>
<path d="M51.7473 58.1448C51.7473 54.2196 50.4385 50.3688 48.0545 47.2574L48.2364 43.9027C48.3602 41.619 46.5501 39.687 44.2481 39.687H33.5048C33.0105 39.3373 32.7107 38.7693 32.7107 38.1559V35.4122C34.3764 34.3337 35.5459 33.1037 36.405 31.6399H38.3043C40.5016 31.6399 42.2891 29.8502 42.2891 27.6502V20.3116C42.2891 19.0738 41.5739 17.9797 40.5044 17.462V12.3116C40.5044 9.96692 38.5993 8.05928 36.2574 8.05928H36.1473C36.0803 8.05928 36.0259 8.00464 36.0259 7.93769C36.0259 5.59296 34.1206 3.68532 31.7787 3.68532H21.3847C16.2254 3.68532 12.0278 7.88803 12.0278 13.0537V17.4619C10.9584 17.9796 10.2431 19.0737 10.2431 20.3114V24.0437C10.2431 25.7899 11.662 27.2105 13.4061 27.2105H14.6731C15.001 29.9876 16.3022 32.5239 18.3402 34.2872C18.8183 34.7009 19.3128 35.0705 19.8215 35.4007V38.1558C19.8215 38.7674 19.5205 39.3355 19.024 39.6869H8.28456C6.00028 39.6869 4.17153 41.6011 4.29637 43.9026L4.47826 47.2573C2.09414 50.3688 0.785286 54.2196 0.785286 58.1448V61.846C0.297312 62.3935 0 63.1147 0 63.9045C0 65.6115 1.38698 67 3.09181 67H49.4408C51.1456 67 52.5326 65.6113 52.5326 63.9045C52.5326 63.1147 52.2353 62.3935 51.7473 61.8461V58.1448ZM49.7844 58.1448V60.8285C49.6715 60.8159 49.557 60.8089 49.4408 60.8089H47.3198L47.8738 50.5907C49.116 52.9007 49.7844 55.5032 49.7844 58.1448ZM40.2256 19.8318C40.2901 19.9796 40.3265 20.1418 40.3265 20.3117V24.0439C40.3265 24.7065 39.7881 25.2455 39.1264 25.2455H37.9592V21.5412L38.5641 21.3302C39.3123 21.0693 39.9008 20.519 40.2256 19.8318ZM33.6731 31.2171H31.21C30.813 31.2171 30.4899 30.8938 30.4899 30.4962C30.4899 30.0987 30.813 29.7754 31.21 29.7754H33.6731C34.0701 29.7754 34.3931 30.0987 34.3931 30.4962C34.3931 30.8938 34.0701 31.2171 33.6731 31.2171ZM38.3046 29.6748H37.3125C37.5889 28.8858 37.7797 28.0593 37.8803 27.2108H39.1264C39.551 27.2108 39.9561 27.126 40.3265 26.9734V27.6505C40.3265 28.7667 39.4193 29.6748 38.3046 29.6748ZM13.9909 13.054C13.9909 8.97196 17.308 5.65087 21.385 5.65087H31.779C33.0385 5.65087 34.0633 6.67689 34.0633 7.93795C34.0633 9.0887 34.9984 10.0248 36.1476 10.0248H36.2577C37.5172 10.0248 38.5418 11.0508 38.5418 12.3119V18.596C38.5418 18.9914 38.2912 19.3444 37.9183 19.4745L35.8558 20.1937C35.7727 20.2225 35.687 20.1625 35.687 20.073L35.6908 16.1681C35.7027 13.3183 33.0375 10.8328 29.3033 12.0338C27.4252 12.638 25.101 12.6359 23.2292 12.0338C19.5337 10.8446 16.8298 13.2859 16.8417 16.1651L16.8463 20.0732C16.8463 20.1634 16.7586 20.2227 16.6775 20.1937L14.6143 19.4744C14.2414 19.3444 13.9908 18.9913 13.9908 18.5959L13.9909 13.054ZM12.2063 24.0439V20.3116C12.2063 20.1418 12.2427 19.9794 12.3072 19.8316C12.6321 20.519 13.2206 21.0693 13.9691 21.3302L14.5738 21.5411V25.2454H13.4065C12.7446 25.2455 12.2063 24.7064 12.2063 24.0439ZM16.5546 26.0758C16.522 24.7839 16.542 23.4127 16.5365 22.1572C16.597 22.1625 16.6576 22.1655 16.7182 22.1655C17.885 22.1655 18.8111 21.2159 18.8092 20.0704L18.8046 16.1597C18.7979 14.5641 20.2274 13.132 22.6287 13.9047C24.9046 14.6369 27.6354 14.6346 29.9038 13.9047C32.1916 13.1688 33.735 14.4644 33.7279 16.163L33.7241 20.0706C33.7225 21.2886 34.7623 22.2644 35.9961 22.1572V26.1553C35.9675 27.0046 35.8279 27.8334 35.5911 28.6216C35.1036 28.1216 34.4243 27.81 33.6731 27.81H31.21C29.7307 27.81 28.527 29.0149 28.527 30.4961C28.527 31.9773 29.7307 33.1823 31.21 33.1823H32.457C30.6442 34.599 28.5828 35.3377 26.3177 35.3753C21.3629 35.3356 16.6963 31.6706 16.5546 26.0758ZM21.7848 38.156V36.4367C23.2034 37.0248 24.7168 37.3296 26.3151 37.3408H26.3221C26.3272 37.3408 26.3323 37.3408 26.3374 37.3407C27.8934 37.3165 29.3666 37.0146 30.7482 36.4447V38.1559C30.7482 38.6924 30.8604 39.2118 31.0669 39.687H21.465C21.6721 39.2117 21.7848 38.6922 21.7848 38.156ZM4.65885 50.5907L4.81378 53.4497C4.84323 53.9917 5.30686 54.4085 5.84692 54.3777C6.38815 54.3484 6.8031 53.8852 6.77379 53.3433L6.25624 43.7963C6.1933 42.6349 7.11376 41.6524 8.28456 41.6524H44.2482C45.4103 41.6524 46.3398 42.6262 46.2765 43.7963L45.3542 60.8091H29.9641C30.1516 59.6866 30.6565 58.6309 31.4342 57.7659L31.4623 57.7344C34.4331 54.4068 33.5439 49.2032 29.704 47.0186C28.7186 46.4581 27.4672 47.1571 27.4672 48.3191V52.7777C27.4672 52.9821 27.3011 53.1482 27.097 53.1482H25.4356C25.2315 53.1482 25.0654 52.9819 25.0654 52.7777V48.3191C25.0654 47.1593 23.816 46.4569 22.8286 47.0186C18.9777 49.2092 18.1066 54.4148 21.0733 57.7377L21.0984 57.7659C21.8761 58.6307 22.381 59.6865 22.5685 60.8089H7.17854L7.02112 57.9038C6.9918 57.3619 6.52922 56.9459 5.98798 56.9758C5.44675 57.0052 5.0318 57.4683 5.06111 58.0102L5.21277 60.8089H3.09181C2.97561 60.8089 2.8611 60.816 2.74817 60.8285V58.1448C2.74817 55.5033 3.41673 52.9007 4.65885 50.5907ZM24.5517 60.8089C24.3508 59.1988 23.6614 57.6789 22.5575 56.4511L22.5338 56.4245C20.6375 54.3007 20.8915 51.0164 23.1027 49.2051V52.7776C23.1027 54.0656 24.1493 55.1134 25.4357 55.1134H27.0971C28.3836 55.1134 29.4302 54.0655 29.4302 52.7776V49.2051C31.6267 51.0043 31.908 54.2863 29.9966 56.4272L29.9754 56.451C28.8713 57.6789 28.182 59.1988 27.9811 60.8089H24.5517ZM49.4408 65.0348H3.09181C2.46931 65.0348 1.96289 64.5278 1.96289 63.9047C1.96289 63.2815 2.46931 62.7744 3.09181 62.7744H49.4408C50.0633 62.7744 50.5697 63.2814 50.5697 63.9047C50.5697 64.5279 50.0633 65.0348 49.4408 65.0348Z" fill="#CFD5DD"/>
<path d="M66.0184 6.72484C66.5604 6.72484 66.9999 6.28488 66.9999 5.74219V3.84031C66.9999 1.72278 65.2792 0 63.1641 0H46.6574C44.5424 0 42.8217 1.72278 42.8217 3.84031V12.1061C42.8217 14.2237 44.5424 15.9465 46.6574 15.9465C47.0353 15.9465 47.3429 16.2544 47.3429 16.6328V21.7445C47.3429 22.4828 47.8202 23.1112 48.5309 23.3081C49.2458 23.5062 49.976 23.2083 50.353 22.5789L54.1257 16.2798C54.2488 16.0743 54.4742 15.9465 54.7136 15.9465H63.1643C65.2793 15.9465 67 14.2237 67 12.1061V10.3363C67 9.79358 66.5606 9.35362 66.0186 9.35362C65.4765 9.35362 65.0371 9.79358 65.0371 10.3363V12.1061C65.0371 13.1401 64.197 13.9812 63.1643 13.9812H54.7135C53.7883 13.9812 52.918 14.4748 52.4422 15.2691L49.3056 20.506V16.6328C49.3056 15.1708 48.1176 13.9812 46.6573 13.9812C45.6246 13.9812 44.7844 13.1401 44.7844 12.1061V3.84031C44.7844 2.80644 45.6246 1.96529 46.6573 1.96529H63.1641C64.1969 1.96529 65.037 2.80644 65.037 3.84031V5.74219C65.037 6.28488 65.4764 6.72484 66.0184 6.72484Z" fill="#CFD5DD"/>
</svg>
