<svg width="61" height="61" viewBox="0 0 61 61" fill="none" xmlns="http://www.w3.org/2000/svg">
<path d="M57.1875 19.0634H55.2812C55.2812 18.8106 55.1808 18.5682 55.0021 18.3894C54.8233 18.2107 54.5809 18.1103 54.3281 18.1103H9.53125C8.7331 18.1104 7.94377 17.9434 7.21403 17.6201C6.4843 17.2968 5.83032 16.8243 5.29418 16.233C4.75803 15.6418 4.3516 14.9448 4.10101 14.1871C3.85042 13.4293 3.76123 12.6274 3.83919 11.8331C4.0148 10.3981 4.71349 9.07819 5.80152 8.12612C6.88955 7.17405 8.29048 6.65666 9.73617 6.673H13.3438V8.57921H9.73617C8.76373 8.55873 7.81784 8.89735 7.07934 9.53034C6.34084 10.1633 5.86153 11.0463 5.73305 12.0104C5.67972 12.5409 5.73829 13.0768 5.90495 13.5833C6.07162 14.0897 6.34268 14.5557 6.70062 14.9509C7.05857 15.3461 7.49544 15.6618 7.98302 15.8777C8.47059 16.0935 8.99803 16.2047 9.53125 16.2041H54.3281C55.0865 16.2041 55.8138 16.5053 56.35 17.0415C56.8862 17.5778 57.1875 18.305 57.1875 19.0634Z" fill="#CFD5DD"/>
<path d="M4.76562 55.2814C3.50217 55.2799 2.29089 54.7773 1.39749 53.8839C0.504091 52.9905 0.00151343 51.7793 0 50.5158V13.3447C0.00201811 11.5759 0.705594 9.88009 1.95638 8.62934C3.20716 7.37858 4.903 6.67502 6.67188 6.673H10.4844V8.57921H6.67188C5.40842 8.58072 4.19714 9.08329 3.30374 9.97667C2.41034 10.8701 1.90776 12.0813 1.90625 13.3447V50.5158C1.90625 51.2742 2.2075 52.0015 2.74374 52.5377C3.27998 53.0739 4.00727 53.3752 4.76562 53.3752V55.2814Z" fill="#CFD5DD"/>
<path d="M41.9375 53.3752H43.8438V55.2814H41.9375V53.3752Z" fill="#CFD5DD"/>
<path d="M52.4219 55.2814H45.75V53.3752H52.4219C54.0736 53.3752 55.2812 52.0408 55.2812 51.4689V40.9848H57.1875V51.4689C57.1875 53.1845 54.9886 55.2814 52.4219 55.2814Z" fill="#CFD5DD"/>
<path d="M58.1406 41.9379H44.7969C44.0385 41.9379 43.3112 41.6366 42.775 41.1004C42.2388 40.5642 41.9375 39.8369 41.9375 39.0786V33.3599C41.9375 32.6016 42.2388 31.8743 42.775 31.3381C43.3112 30.8019 44.0385 30.5006 44.7969 30.5006H55.2812V19.0634H57.1875V27.6413H58.1406C58.899 27.6413 59.6263 27.9426 60.1625 28.4788C60.6987 29.015 61 29.7423 61 30.5006V39.0786C61 39.8369 60.6987 40.5642 60.1625 41.1004C59.6263 41.6366 58.899 41.9379 58.1406 41.9379ZM44.7969 32.4068C44.5441 32.4068 44.3017 32.5073 44.1229 32.686C43.9442 32.8647 43.8438 33.1072 43.8438 33.3599V39.0786C43.8438 39.3314 43.9442 39.5738 44.1229 39.7525C44.3017 39.9313 44.5441 40.0317 44.7969 40.0317H58.1406C58.3934 40.0317 58.6358 39.9313 58.8146 39.7525C58.9933 39.5738 59.0938 39.3314 59.0938 39.0786V30.5006C59.0938 30.2478 58.9933 30.0054 58.8146 29.8267C58.6358 29.6479 58.3934 29.5475 58.1406 29.5475H57.1875V31.4537C57.1875 31.7065 57.0871 31.9489 56.9083 32.1277C56.7296 32.3064 56.4872 32.4068 56.2344 32.4068H44.7969Z" fill="#CFD5DD"/>
<path d="M47.6562 39.0786C47.0907 39.0786 46.5379 38.9109 46.0677 38.5967C45.5974 38.2825 45.231 37.8359 45.0145 37.3135C44.7981 36.791 44.7415 36.2161 44.8518 35.6614C44.9621 35.1068 45.2345 34.5973 45.6344 34.1974C46.0343 33.7975 46.5438 33.5252 47.0984 33.4149C47.6531 33.3046 48.228 33.3612 48.7505 33.5776C49.273 33.794 49.7195 34.1605 50.0337 34.6307C50.3479 35.1009 50.5156 35.6537 50.5156 36.2193C50.5156 36.9776 50.2144 37.7049 49.6781 38.2411C49.1419 38.7773 48.4146 39.0786 47.6562 39.0786ZM47.6562 35.2662C47.4677 35.2662 47.2835 35.3221 47.1267 35.4268C46.97 35.5315 46.8478 35.6804 46.7757 35.8545C46.7035 36.0287 46.6847 36.2203 46.7214 36.4052C46.7582 36.5901 46.849 36.7599 46.9823 36.8932C47.1156 37.0265 47.2854 37.1173 47.4703 37.1541C47.6552 37.1908 47.8468 37.172 48.021 37.0998C48.1952 37.0277 48.344 36.9055 48.4487 36.7488C48.5535 36.592 48.6094 36.4078 48.6094 36.2193C48.6094 35.9665 48.509 35.7241 48.3302 35.5453C48.1515 35.3666 47.909 35.2662 47.6562 35.2662Z" fill="#CFD5DD"/>
<path d="M56.5537 25.8762L55.9151 24.0805L58.8326 23.0435L51.4935 2.17053L20.2063 13.2895L19.5677 11.4938L51.7547 0.0565436C51.8729 0.0144182 51.9982 -0.00395221 52.1236 0.0024865C52.2489 0.0089252 52.3717 0.0400463 52.485 0.0940639C52.5982 0.148082 52.6997 0.223933 52.7836 0.317264C52.8675 0.410596 52.9321 0.519572 52.9737 0.637938L60.9457 23.3066C61.0297 23.5446 61.0158 23.8062 60.9072 24.034C60.7985 24.2618 60.604 24.4372 60.3662 24.5218L56.5537 25.8762Z" fill="#CFD5DD"/>
<path d="M15.8812 12.7971L17.7868 12.1195L18.4255 13.9155L16.5199 14.5931L15.8812 12.7971Z" fill="#CFD5DD"/>
<path d="M7.94239 17.4736L7.67933 16.7264C7.59534 16.4883 7.60918 16.2267 7.71781 15.9989C7.82645 15.7711 8.02102 15.5957 8.25883 15.5111L14.2016 13.4L14.8402 15.1957L8.89742 17.3077L8.84309 17.1572L7.94239 17.4736Z" fill="#CFD5DD"/>
<path d="M17.9311 18.0207L17.2925 16.2241L45.0504 6.36229C45.2893 6.27818 45.5517 6.29189 45.7805 6.40041C45.8936 6.45444 45.9949 6.53024 46.0786 6.62346C46.1623 6.71668 46.2269 6.82549 46.2685 6.94368C46.387 7.28451 46.572 7.59838 46.8129 7.86705C47.0537 8.13572 47.3456 8.35383 47.6715 8.50868C47.993 8.66327 48.3419 8.7524 48.6982 8.77089C49.0544 8.78938 49.4107 8.73686 49.7465 8.61638C49.8647 8.57426 49.99 8.55589 50.1153 8.56232C50.2406 8.56876 50.3635 8.59988 50.4767 8.6539C50.59 8.70792 50.6915 8.78377 50.7753 8.8771C50.8592 8.97043 50.9238 9.07941 50.9655 9.19778L53.6533 16.8388L51.8548 17.4717L49.4519 10.6398C48.5588 10.7582 47.6506 10.614 46.8381 10.2247C46.0257 9.83542 45.3442 9.21793 44.8769 8.44768L17.9311 18.0207Z" fill="#CFD5DD"/>
<path d="M37.1719 61H6.67188C5.91352 61 5.18623 60.6987 4.64999 60.1625C4.11375 59.6263 3.8125 58.899 3.8125 58.1407V39.0786C3.8125 38.3202 4.11375 37.593 4.64999 37.0567C5.18623 36.5205 5.91352 36.2193 6.67188 36.2193H37.1719C37.9302 36.2193 38.6575 36.5205 39.1938 37.0567C39.73 37.593 40.0312 38.3202 40.0312 39.0786V58.1407C40.0312 58.899 39.73 59.6263 39.1938 60.1625C38.6575 60.6987 37.9302 61 37.1719 61ZM6.67188 38.1255C6.41909 38.1255 6.17666 38.2259 5.99791 38.4046C5.81917 38.5834 5.71875 38.8258 5.71875 39.0786V58.1407C5.71875 58.3935 5.81917 58.6359 5.99791 58.8146C6.17666 58.9934 6.41909 59.0938 6.67188 59.0938H37.1719C37.4247 59.0938 37.6671 58.9934 37.8458 58.8146C38.0246 58.6359 38.125 58.3935 38.125 58.1407V39.0786C38.125 38.8258 38.0246 38.5834 37.8458 38.4046C37.6671 38.2259 37.4247 38.1255 37.1719 38.1255H6.67188Z" fill="#CFD5DD"/>
<path d="M5.71875 41.9379H38.125V43.8441H5.71875V41.9379Z" fill="#CFD5DD"/>
<path d="M5.71875 44.7972H38.125V46.7034H5.71875V44.7972Z" fill="#CFD5DD"/>
<path d="M5.08969 14.2407L4.44156 12.4488L38.7541 0.0584498C38.9744 -0.0224689 39.2168 -0.0192705 39.4348 0.0674323C39.6529 0.154135 39.8313 0.318247 39.9359 0.528331L41.8422 4.34075L40.1361 5.19283L38.6111 2.14289L5.08969 14.2407Z" fill="#CFD5DD"/>
</svg>
