<svg width="59" height="59" viewBox="0 0 59 59" fill="none" xmlns="http://www.w3.org/2000/svg">
<path d="M2.94543 53.1001H5.89086V56.0501C5.89086 57.6793 7.20958 59 8.83628 59H44.1823C45.8095 59 47.1282 57.6793 47.1282 56.0501V29.4343L53.3883 23.6136L54.7235 25.0543L49.4051 30.0004C49.0076 30.3702 48.9852 30.9926 49.3544 31.3907C49.7236 31.7884 50.3451 31.8108 50.7421 31.4411L56.0627 26.4968C56.4452 26.1421 56.6709 25.6497 56.6901 25.128C56.7098 24.6067 56.5215 24.0987 56.1669 23.7161L54.8313 22.2755L57.7082 19.5997C58.7569 18.6487 59.2142 17.2067 58.9049 15.8237C58.5956 14.4412 57.5674 13.3324 56.214 12.9205C54.8601 12.5086 53.3901 12.8578 52.3652 13.8344L47.1282 18.7V8.84979C47.1282 7.2206 45.8095 5.89986 44.1823 5.89986H41.2369V2.94993C41.2369 1.32074 39.9182 0 38.2915 0H10.8002C10.7796 0 10.7609 0.0109833 10.7394 0.0118985C10.6526 0.0173903 10.5672 0.0347805 10.4849 0.0626963C10.4534 0.0736796 10.4241 0.0814594 10.3935 0.0951886C10.2871 0.143241 10.1893 0.209598 10.1061 0.291973L0.287872 10.1252C0.205622 10.209 0.138909 10.3065 0.0913878 10.4135C0.0776795 10.4428 0.0699116 10.4744 0.0589451 10.5051C0.0306149 10.587 0.0137082 10.673 0.00776795 10.7595C0.0109665 10.7774 0 10.7961 0 10.8167V50.1502C0 51.7794 1.31873 53.1001 2.94543 53.1001ZM45.1643 56.0501C45.1643 56.5933 44.7247 57.0335 44.1823 57.0335H8.83628C8.29435 57.0335 7.85478 56.5933 7.85478 56.0501V53.1001H38.2915C39.9182 53.1001 41.2369 51.7794 41.2369 50.1502V34.9086L45.1643 31.2571V56.0501ZM26.9023 44.1812C25.8641 45.0384 24.6811 45.7024 23.409 46.1408C23.9198 44.8906 24.6628 43.7479 25.5982 42.774L25.6544 42.834L26.9023 44.1812ZM28.4358 42.9452L26.9425 41.3343L30.7607 36.7767L33.2546 39.4689L28.4358 42.9452ZM34.7826 38.2251L33.1596 36.4819L32.1109 35.3498L49.3805 19.289L52.0531 22.1753L39.5887 33.7608C39.575 33.7736 39.5608 33.7855 39.5481 33.7993L34.7826 38.2251ZM53.6976 15.275C54.0769 14.9162 54.585 14.7268 55.1064 14.7501C55.9001 14.7799 56.5974 15.2856 56.8738 16.031C57.1498 16.7765 56.951 17.6149 56.3689 18.1563L53.4911 20.833L50.8198 17.9499L53.6976 15.275ZM44.1823 7.86679C44.7247 7.86679 45.1643 8.30704 45.1643 8.84979V20.526L41.2369 24.1774V7.86679H44.1823ZM39.2734 2.94993V26.0034L30.0552 34.5741C30.0414 34.591 30.0291 34.6088 30.0177 34.6271C30.004 34.6409 29.9843 34.6477 29.9715 34.6624L28.5303 36.3836H6.87282C6.33043 36.3836 5.89086 36.8238 5.89086 37.3666C5.89086 37.9098 6.33043 38.35 6.87282 38.35H26.8817L24.9237 40.6863L24.7921 40.8094C23.4506 42.0464 22.3863 43.5547 21.6699 45.2343H12.7637C12.2217 45.2343 11.7822 45.6745 11.7822 46.2177C11.7822 46.7609 12.2217 47.2012 12.7637 47.2012H21.7338C21.7896 47.3055 21.8554 47.4044 21.9303 47.4959C22.2936 47.8849 22.8026 48.1036 23.3345 48.0986C23.5525 48.0991 23.769 48.0657 23.9774 48.0007C25.7755 47.4117 27.4218 46.4333 28.799 45.135L28.9306 45.0141L35.3049 40.4149C35.3205 40.4034 35.3273 40.3847 35.3419 40.3728C35.357 40.3609 35.3835 40.3522 35.4 40.3362L39.2734 36.7373V50.1502C39.2734 50.693 38.8339 51.1332 38.2915 51.1332H2.94543C2.40304 51.1332 1.96347 50.693 1.96347 50.1502V11.8002H8.83628C10.4634 11.8002 11.7822 10.4794 11.7822 8.84979V1.96647H38.2915C38.8339 1.96647 39.2734 2.40672 39.2734 2.94993ZM9.81824 3.35723V8.84979C9.81824 9.39301 9.37867 9.83326 8.83628 9.83326H3.3521L9.81824 3.35723Z" fill="#CFD5DD"/>
<path fill-rule="evenodd" clip-rule="evenodd" d="M6.87282 47.2003H8.83629C9.37867 47.2003 9.81825 46.76 9.81825 46.2168C9.81825 45.6736 9.37867 45.2334 8.83629 45.2334H6.87282C6.33043 45.2334 5.89086 45.6736 5.89086 46.2168C5.89086 46.76 6.33043 47.2003 6.87282 47.2003Z" fill="#CFD5DD"/>
<path fill-rule="evenodd" clip-rule="evenodd" d="M5.89086 17.7001C5.89086 18.2433 6.33043 18.6835 6.87282 18.6835H34.3641C34.9065 18.6835 35.3461 18.2433 35.3461 17.7001C35.3461 17.1568 34.9065 16.7166 34.3641 16.7166H6.87282C6.33043 16.7166 5.89086 17.1568 5.89086 17.7001Z" fill="#CFD5DD"/>
<path fill-rule="evenodd" clip-rule="evenodd" d="M34.3641 21.6334H29.4552C28.9128 21.6334 28.4732 22.0737 28.4732 22.6169C28.4732 23.1597 28.9128 23.5999 29.4552 23.5999H34.3641C34.9065 23.5999 35.3461 23.1597 35.3461 22.6169C35.3461 22.0737 34.9065 21.6334 34.3641 21.6334Z" fill="#CFD5DD"/>
<path fill-rule="evenodd" clip-rule="evenodd" d="M6.87282 23.5999H24.5459C25.0882 23.5999 25.5278 23.1597 25.5278 22.6169C25.5278 22.0737 25.0882 21.6334 24.5459 21.6334H6.87282C6.33043 21.6334 5.89086 22.0737 5.89086 22.6169C5.89086 23.1597 6.33043 23.5999 6.87282 23.5999Z" fill="#CFD5DD"/>
<path fill-rule="evenodd" clip-rule="evenodd" d="M11.7822 26.5498H6.87282C6.33043 26.5498 5.89086 26.9901 5.89086 27.5333C5.89086 28.0765 6.33043 28.5168 6.87282 28.5168H11.7822C12.3241 28.5168 12.7637 28.0765 12.7637 27.5333C12.7637 26.9901 12.3241 26.5498 11.7822 26.5498Z" fill="#CFD5DD"/>
<path fill-rule="evenodd" clip-rule="evenodd" d="M33.3826 26.5498H16.6911C16.1491 26.5498 15.7096 26.9901 15.7096 27.5333C15.7096 28.0765 16.1491 28.5168 16.6911 28.5168H33.3826C33.9245 28.5168 34.3641 28.0765 34.3641 27.5333C34.3641 26.9901 33.9245 26.5498 33.3826 26.5498Z" fill="#CFD5DD"/>
<path fill-rule="evenodd" clip-rule="evenodd" d="M9.81825 31.4667H6.87282C6.33043 31.4667 5.89086 31.907 5.89086 32.4502C5.89086 32.9929 6.33043 33.4332 6.87282 33.4332H9.81825C10.3606 33.4332 10.8002 32.9929 10.8002 32.4502C10.8002 31.907 10.3606 31.4667 9.81825 31.4667Z" fill="#CFD5DD"/>
<path fill-rule="evenodd" clip-rule="evenodd" d="M27.4913 31.4667H14.7276C14.1852 31.4667 13.7456 31.907 13.7456 32.4502C13.7456 32.9929 14.1852 33.4332 14.7276 33.4332H27.4913C28.0337 33.4332 28.4732 32.9929 28.4732 32.4502C28.4732 31.907 28.0337 31.4667 27.4913 31.4667Z" fill="#CFD5DD"/>
<path fill-rule="evenodd" clip-rule="evenodd" d="M18.655 8.84979H26.5093C27.0517 8.84979 27.4913 8.40955 27.4913 7.86679C27.4913 7.32357 27.0517 6.88333 26.5093 6.88333H18.655C18.1126 6.88333 17.673 7.32357 17.673 7.86679C17.673 8.40955 18.1126 8.84979 18.655 8.84979Z" fill="#CFD5DD"/>
</svg>
