<svg width="68" height="77" viewBox="0 0 68 77" fill="none" xmlns="http://www.w3.org/2000/svg">
<path d="M32.0088 41C31.9008 41 31.8036 40.96 31.7172 40.88C31.6416 40.8 31.6038 40.6971 31.6038 40.5714V38.9943H30.405C30.2862 38.9943 30.189 38.9543 30.1134 38.8743C30.0378 38.7943 30 38.6914 30 38.5657V37.9143C30 37.7886 30.0378 37.6857 30.1134 37.6057C30.189 37.5257 30.2862 37.4857 30.405 37.4857H31.6038V36.6114H30.405C30.2862 36.6114 30.189 36.5714 30.1134 36.4914C30.0378 36.4 30 36.2971 30 36.1829V34.8971C30 34.7714 30.0378 34.6686 30.1134 34.5886C30.189 34.4971 30.2862 34.4514 30.405 34.4514H31.6038V29.4286C31.6038 29.3029 31.6416 29.2 31.7172 29.12C31.8036 29.04 31.9008 29 32.0088 29H36.5611C37.4575 29 38.2351 29.1486 38.894 29.4457C39.5636 29.7314 40.082 30.1657 40.4492 30.7486C40.8164 31.3314 41 32.0686 41 32.96C41 33.7943 40.8164 34.48 40.4492 35.0171C40.082 35.5543 39.5636 35.9543 38.894 36.2171C38.2351 36.48 37.4575 36.6114 36.5611 36.6114H34.6171V37.4857H36.7879C36.9067 37.4857 37.0039 37.5257 37.0795 37.6057C37.1659 37.6857 37.2091 37.7886 37.2091 37.9143V38.5657C37.2091 38.6914 37.1659 38.7943 37.0795 38.8743C37.0039 38.9543 36.9067 38.9943 36.7879 38.9943H34.6171V40.5714C34.6171 40.6971 34.5793 40.8 34.5037 40.88C34.4281 40.96 34.3309 41 34.2121 41H32.0088ZM34.5685 34.4514H36.4801C36.9445 34.4514 37.3117 34.3257 37.5817 34.0743C37.8517 33.8229 37.9867 33.44 37.9867 32.9257C37.9867 32.4914 37.8679 32.1257 37.6303 31.8286C37.3927 31.5314 37.0093 31.3829 36.4801 31.3829H34.5685V34.4514Z" fill="#FFA147"/>
<path d="M16.4322 35.1278C16.4322 45.2431 24.6515 53.4429 34.7908 53.4429C44.9302 53.4429 53.1494 45.2431 53.1494 35.1278C53.1494 25.0125 44.9302 16.8128 34.7908 16.8128C24.6565 16.8239 16.444 25.0175 16.4322 35.1278ZM34.7908 19.3388C43.5319 19.3388 50.6174 26.4075 50.6174 35.1278C50.6174 43.8481 43.5319 50.9168 34.7908 50.9168C26.0498 50.9168 18.9643 43.8481 18.9643 35.1278C18.9742 26.4119 26.0541 19.3487 34.7908 19.3388Z" fill="#FFA147"/>
<path d="M59.3905 56.5567L49.4731 61.2313C48.1039 58.6905 45.4773 57.0735 42.5867 56.9921L33.4315 56.7411C31.9818 56.6997 30.5594 56.3334 29.2705 55.6692L28.3389 55.1876C23.5691 52.7072 17.8837 52.7133 13.1188 55.2036L13.1769 53.0982C13.1961 52.4007 12.6453 51.8197 11.9461 51.8006L1.90694 51.5249C1.20778 51.5058 0.62608 52.0553 0.606916 52.7528L0.00048526 74.7311C-0.0186781 75.4286 0.532117 76.0096 1.23127 76.0287L11.2705 76.3043H11.3051C11.9913 76.3043 12.5526 75.7598 12.5711 75.0759L12.6002 74.0244L15.2082 72.6312C16.2319 72.0817 17.4287 71.951 18.547 72.2667L34.1214 76.6275C34.1486 76.6355 34.1758 76.6417 34.2036 76.6479C35.3293 76.8828 36.4766 77.0006 37.6264 77C40.062 77.0012 42.4692 76.4776 44.6829 75.4638C44.7373 75.4391 44.7898 75.4101 44.8399 75.3774L67.4213 60.8058C67.9838 60.4426 68.1656 59.7056 67.8361 59.1234C66.1596 56.1558 62.4412 55.0254 59.3905 56.5567ZM2.56654 73.5384L3.10311 54.0849L10.6109 54.2909L10.0743 73.745L2.56654 73.5384ZM43.5424 73.2078C40.7921 74.4462 37.7204 74.7879 34.7643 74.1853L19.232 69.8357C17.4838 69.3429 15.6125 69.5471 14.0133 70.4049L12.6805 71.1172L13.0372 58.1829C17.2606 55.3806 22.6771 55.0926 27.1749 57.4305L28.1065 57.9122C29.7348 58.7509 31.5306 59.2135 33.3622 59.2665L42.518 59.5175C45.0897 59.5915 47.2737 61.4182 47.7954 63.9319L34.1578 63.5563C33.4587 63.5372 32.877 64.0873 32.8572 64.7842C32.838 65.4817 33.3894 66.0626 34.088 66.0818L49.1381 66.4949H49.1733C49.8589 66.4943 50.4196 65.9498 50.4381 65.2665C50.4536 64.7176 50.4128 64.1681 50.3157 63.6279L60.4878 58.8329C60.4977 58.8286 60.5076 58.8237 60.5175 58.8188C61.9603 58.0904 63.7048 58.334 64.8917 59.4299L43.5424 73.2078Z" fill="#FFA147"/>
<path d="M36.0569 13.2617V1.26302C36.0569 0.565523 35.49 0 34.7908 0C34.0917 0 33.5248 0.565523 33.5248 1.26302V13.2617C33.5248 13.9592 34.0917 14.5248 34.7908 14.5248C35.49 14.5248 36.0569 13.9592 36.0569 13.2617Z" fill="#FFA147"/>
<path d="M45.5521 13.2617V7.57814C45.5521 6.88064 44.9852 6.31511 44.286 6.31511C43.5869 6.31511 43.02 6.88064 43.02 7.57814V13.2617C43.02 13.9592 43.5869 14.5248 44.286 14.5248C44.9852 14.5248 45.5521 13.9592 45.5521 13.2617Z" fill="#FFA147"/>
<path d="M26.5617 13.2617V7.57814C26.5617 6.88064 25.9948 6.31511 25.2956 6.31511C24.5965 6.31511 24.0296 6.88064 24.0296 7.57814V13.2617C24.0296 13.9592 24.5965 14.5248 25.2956 14.5248C25.9948 14.5248 26.5617 13.9592 26.5617 13.2617Z" fill="#FFA147"/>
</svg>
