<svg width="12" height="16" viewBox="0 0 12 16" fill="none" xmlns="http://www.w3.org/2000/svg">
<path d="M6 0C2.69169 0 0 2.73375 0 6.09375C0 7.42344 0.413538 8.68688 1.19692 9.74688L5.63015 15.811C5.64123 15.8257 5.65815 15.8313 5.67046 15.8444C5.892 16.0853 6.21169 16.0247 6.36954 15.811C7.64615 14.081 9.98615 10.85 10.8858 9.63125L10.8865 9.62969L10.892 9.62219C11.6169 8.58781 12 7.36781 12 6.09375C12 2.73375 9.30831 0 6 0ZM6 9.38125C4.21877 9.38125 2.76308 7.90281 2.76308 6.09375C2.76308 4.28469 4.21877 2.80625 6 2.80625C7.78123 2.80625 9.23692 4.28469 9.23692 6.09375C9.23692 7.90281 7.78123 9.38125 6 9.38125Z" fill="#FFA048"/>
</svg>
