<svg width="22" height="15" viewBox="0 0 22 15" fill="none" xmlns="http://www.w3.org/2000/svg">
<path d="M21.1454 1.07171L14.6755 7.5L21.1454 13.9283C21.2624 13.6838 21.3333 13.4136 21.3333 13.125V1.875C21.3333 1.58637 21.2624 1.31617 21.1454 1.07171Z" fill="#FEFEFE"/>
<path d="M19.4583 0H1.875C1.58637 0 1.31617 0.0709584 1.07171 0.187917L9.341 8.41554C10.0722 9.14671 11.2612 9.14671 11.9923 8.41554L20.2616 0.187917C20.0172 0.0709584 19.747 0 19.4583 0Z" fill="#FEFEFE"/>
<path d="M0.187917 1.07171C0.0709583 1.31617 0 1.58637 0 1.875V13.125C0 13.4136 0.0709583 13.6839 0.187917 13.9283L6.65788 7.5L0.187917 1.07171Z" fill="#FEFEFE"/>
<path d="M13.7917 8.38379L12.8761 9.29933C11.6578 10.5176 9.67546 10.5176 8.45717 9.29933L7.54167 8.38379L1.07171 14.8121C1.31617 14.929 1.58637 15 1.875 15H19.4583C19.747 15 20.0172 14.929 20.2616 14.8121L13.7917 8.38379Z" fill="#FEFEFE"/>
</svg>
