<svg width="19" height="19" viewBox="0 0 19 19" fill="none" xmlns="http://www.w3.org/2000/svg">
<path d="M14.4452 12.5689C13.8245 11.956 13.0495 11.956 12.4327 12.5689C11.9622 13.0354 11.4917 13.5019 11.0291 13.9764C10.9026 14.1069 10.7958 14.1345 10.6416 14.0476C10.3372 13.8815 10.013 13.7471 9.72039 13.5652C8.35632 12.7073 7.21367 11.6042 6.20149 10.3627C5.69936 9.74592 5.25258 9.08564 4.94023 8.34235C4.87697 8.1921 4.88883 8.09326 5.01139 7.9707C5.4819 7.51602 5.94054 7.04948 6.40314 6.58294C7.04761 5.93453 7.04761 5.17542 6.39918 4.52305C6.03148 4.1514 5.66377 3.78766 5.29607 3.41601C4.9165 3.03646 4.54089 2.65294 4.15737 2.27734C3.53662 1.67242 2.76167 1.67242 2.14488 2.2813C1.67042 2.74783 1.21573 3.22623 0.733364 3.68486C0.286583 4.10791 0.0612155 4.62585 0.0137697 5.23077C-0.0613529 6.21525 0.17983 7.14437 0.519858 8.04977C1.21573 9.92383 2.27535 11.5883 3.56034 13.1145C5.29607 15.1783 7.36787 16.8112 9.79156 17.9894C10.8828 18.5192 12.0136 18.9264 13.2432 18.9937C14.0894 19.0411 14.8248 18.8276 15.4139 18.1673C15.8172 17.7166 16.2719 17.3054 16.6989 16.8745C17.3315 16.234 17.3354 15.459 16.7068 14.8264C15.9556 14.0713 15.2004 13.3201 14.4452 12.5689Z" fill="#FEFEFE"/>
<path d="M13.69 9.41776L15.149 9.16867C14.9197 7.82836 14.287 6.61457 13.3263 5.64986C12.3101 4.63376 11.0252 3.99326 9.60968 3.79557L9.40409 5.2624C10.4993 5.41659 11.4957 5.91081 12.2825 6.6976C13.0258 7.4409 13.5121 8.38188 13.69 9.41776Z" fill="#FEFEFE"/>
<path d="M15.9714 3.07599C14.2871 1.39171 12.1559 0.328159 9.80342 0L9.59782 1.46683C11.6301 1.7515 13.4726 2.67271 14.9276 4.12373C16.3075 5.50358 17.2129 7.24717 17.541 9.16472L19 8.91564C18.6165 6.69365 17.5687 4.67725 15.9714 3.07599Z" fill="#FEFEFE"/>
</svg>
