<svg width="14" height="12" viewBox="0 0 14 12" fill="none" xmlns="http://www.w3.org/2000/svg">
<path d="M12.936 4.27174C12.7899 4.11781 12.5902 4.0177 12.3727 3.98927V3.98885L8.97541 3.54829L7.63101 0.532645C7.4347 0.0912375 6.89439 -0.1172 6.4242 0.0670818C6.20005 0.154941 6.02183 0.322224 5.92826 0.532645L4.58386 3.54829L1.18654 3.98885C0.680379 4.05499 0.327166 4.49383 0.397622 4.96899C0.427901 5.17318 0.534547 5.3606 0.698515 5.49775L3.25815 7.64046L2.73222 11.0028C2.67525 11.3442 2.84229 11.6844 3.15587 11.8654C3.46502 12.051 3.86269 12.0441 4.16428 11.8478L6.77961 10.1782L9.39494 11.8496C9.81695 12.1184 10.3913 12.0153 10.6777 11.6191C10.8079 11.4391 10.8612 11.2197 10.827 11.0045L10.3011 7.64086L12.8608 5.49815C13.2423 5.17901 13.276 4.6299 12.936 4.27174ZM9.50953 7.15661C9.39502 7.25266 9.33962 7.39629 9.36206 7.53889L9.90987 11.1386L7.03754 9.30534C6.8827 9.20656 6.67927 9.20656 6.52443 9.30534L3.6352 11.1275L4.19715 7.53718C4.21898 7.39516 4.16361 7.25231 4.04969 7.15664L1.31065 4.83907L4.96636 4.36552C5.12642 4.34481 5.26287 4.2462 5.32516 4.10626L6.78506 0.857065C6.78672 0.858973 6.78795 0.861158 6.78873 0.863493L8.23357 4.10455C8.29587 4.24449 8.43234 4.3431 8.59237 4.36381L12.2527 4.85835L9.50953 7.15661Z" fill="#FEB300"/>
</svg>
