<svg width="22" height="16" viewBox="0 0 22 16" fill="none" xmlns="http://www.w3.org/2000/svg">
<path d="M10.9992 15.9919C10.9974 15.9919 10.9954 15.9919 10.9933 15.9919C10.3295 15.9873 4.46091 15.9338 2.79822 15.4841C1.63621 15.1718 0.71893 14.2555 0.405728 13.0933C-0.0293314 11.46 -0.00163662 8.3154 0.00138462 8.0643C-0.00146877 7.81437 -0.0294992 4.64375 0.404385 2.997C0.404889 2.99549 0.405224 2.99381 0.405728 2.9923C0.715406 1.84339 1.65333 0.898744 2.79537 0.585542C2.79822 0.584702 2.80124 0.584031 2.80409 0.583192C4.44799 0.151154 10.3282 0.0982819 10.9933 0.09375H11.0053C11.6708 0.0982819 17.555 0.151825 19.2024 0.602158C20.3614 0.913682 21.278 1.82878 21.592 2.98945C22.0434 4.63737 22.0016 7.81488 21.9971 8.0831C22.0002 8.34729 22.0266 11.4637 21.5941 13.1052C21.5937 13.1069 21.5932 13.1084 21.5929 13.1099C21.2795 14.2721 20.3624 15.1884 19.199 15.5011C19.1975 15.5016 19.1959 15.5019 19.1943 15.5024C17.5506 15.9343 11.6703 15.9872 11.0053 15.9919C11.0033 15.9919 11.0012 15.9919 10.9992 15.9919ZM2.06573 3.43776C1.68371 4.89132 1.7198 8.0215 1.72014 8.05305V8.07571C1.70872 8.94382 1.74884 11.4578 2.0659 12.6485C2.21965 13.2187 2.672 13.6704 3.2457 13.8246C4.47249 14.1565 9.25227 14.2609 10.9992 14.2731C12.7507 14.2609 17.5375 14.1593 18.7553 13.8408C19.3271 13.686 19.778 13.2358 19.9327 12.665C20.2501 11.4568 20.2899 8.95506 20.2783 8.0925C20.2783 8.08343 20.2783 8.07437 20.2785 8.06531C20.2943 7.18679 20.2632 4.64341 19.9342 3.44314C19.9339 3.44196 19.9335 3.44079 19.9334 3.43961C19.779 2.86692 19.3264 2.41524 18.7527 2.26099C17.5379 1.92882 12.7504 1.82476 10.9992 1.8125C9.24891 1.82476 4.46679 1.92614 3.24536 2.24437C2.68257 2.40047 2.21999 2.86826 2.06573 3.43776ZM8.80865 11.5231V4.56234L14.8243 8.04281L8.80865 11.5231Z" fill="white"/>
</svg>
