<svg width="17" height="19" viewBox="0 0 17 19" fill="none" xmlns="http://www.w3.org/2000/svg">
<path d="M8.50129 0C5.78816 0 3.5703 2.21881 3.5703 4.93311C3.5703 7.64742 5.78816 9.86623 8.50129 9.86623C11.2144 9.86623 13.4323 7.64742 13.4323 4.93311C13.4323 2.21881 11.2144 0 8.50129 0Z" fill="url(#paint0_linear_1_5147)"/>
<path d="M16.9637 13.8084C16.8345 13.4853 16.6622 13.1837 16.4684 12.9036C15.4779 11.4388 13.9491 10.4694 12.2265 10.2324C12.0112 10.2109 11.7743 10.2539 11.6021 10.3832C10.6977 11.051 9.62106 11.3957 8.50133 11.3957C7.38161 11.3957 6.30499 11.051 5.40061 10.3832C5.22833 10.2539 4.99147 10.1893 4.77616 10.2324C3.05354 10.4694 1.5032 11.4388 0.534239 12.9036C0.340447 13.1837 0.168168 13.5068 0.0390007 13.8084C-0.0255831 13.9377 -0.00406896 14.0885 0.0605148 14.2177C0.232793 14.5193 0.4481 14.8209 0.641893 15.0794C0.943339 15.4887 1.26634 15.8549 1.63241 16.1996C1.93386 16.5011 2.27837 16.7812 2.62293 17.0612C4.32399 18.3322 6.36961 19 8.47982 19C10.59 19 12.6356 18.3322 14.3367 17.0612C14.6812 16.8028 15.0257 16.5011 15.3272 16.1996C15.6717 15.8549 16.0163 15.4887 16.3177 15.0794C16.5331 14.7993 16.7269 14.5193 16.8991 14.2177C17.0067 14.0885 17.0282 13.9376 16.9637 13.8084Z" fill="url(#paint1_linear_1_5147)"/>
<defs>
<linearGradient id="paint0_linear_1_5147" x1="6.32231" y1="16.72" x2="13.9676" y2="15.7036" gradientUnits="userSpaceOnUse">
<stop stop-color="#FFC83E"/>
<stop offset="1" stop-color="#FF7347"/>
</linearGradient>
<linearGradient id="paint1_linear_1_5147" x1="6.32231" y1="16.72" x2="13.9676" y2="15.7036" gradientUnits="userSpaceOnUse">
<stop stop-color="#FFC83E"/>
<stop offset="1" stop-color="#FF7347"/>
</linearGradient>
</defs>
</svg>
